<?xml version="1.0" encoding="UTF-8" standalone="no"?>
<svg
   xmlns:ooo="http://xml.openoffice.org/svg/export"
   xmlns:dc="http://purl.org/dc/elements/1.1/"
   xmlns:cc="http://creativecommons.org/ns#"
   xmlns:rdf="http://www.w3.org/1999/02/22-rdf-syntax-ns#"
   xmlns:svg="http://www.w3.org/2000/svg"
   xmlns="http://www.w3.org/2000/svg"
   xmlns:sodipodi="http://sodipodi.sourceforge.net/DTD/sodipodi-0.dtd"
   xmlns:inkscape="http://www.inkscape.org/namespaces/inkscape"
   version="1.2"
   width="128mm"
   height="128mm"
   viewBox="0 0 25600 25600"
   preserveAspectRatio="xMidYMid"
   fill-rule="evenodd"
   clip-path="url(#presentation_clip_path)"
   stroke-width="28.222"
   stroke-linejoin="round"
   xml:space="preserve"
   id="svg2"
   inkscape:version="0.48.3.1 r9886"
   sodipodi:docname="zentalogo.svg"
   inkscape:export-filename="/home/mag/build/zenta/org.rulez.magwas.zenta.editor/img/app-128.png"
   inkscape:export-xdpi="25.561201"
   inkscape:export-ydpi="25.561201"><metadata
   id="metadata72"><rdf:RDF><cc:Work
       rdf:about=""><dc:format>image/svg+xml</dc:format><dc:type
         rdf:resource="http://purl.org/dc/dcmitype/StillImage" /><dc:title></dc:title></cc:Work></rdf:RDF></metadata><sodipodi:namedview
   pagecolor="#ffffff"
   bordercolor="#666666"
   borderopacity="1"
   objecttolerance="10"
   gridtolerance="10"
   guidetolerance="10"
   inkscape:pageopacity="0"
   inkscape:pageshadow="2"
   inkscape:window-width="640"
   inkscape:window-height="480"
   id="namedview70"
   showgrid="false"
   inkscape:zoom="0.52034723"
   inkscape:cx="226.77165"
   inkscape:cy="226.77165"
   inkscape:window-x="0"
   inkscape:window-y="24"
   inkscape:window-maximized="0"
   inkscape:current-layer="svg2" />
 <defs
   class="TextShapeIndex"
   id="defs4">
  <g
   ooo:slide="id1"
   ooo:id-list="id3 id4 id5 id6 id7 id8"
   id="g6" />
 
   
  
    
   
     
     
     
     
     
    </defs>
 <rect
   style="fill:#ffffff"
   id="rect3016"
   width="25166.102"
   height="25057.627"
   x="216.94933"
   y="216.94911" /><g
   class="SlideGroup"
   id="g8"
   transform="matrix(1.6107384,0,0,1.6030347,-4488.0561,-6537.7968)">
  <g
   id="g15"
   class="com.sun.star.drawing.CustomShape"
   style="fill:#0000ff">
      <g
   id="id3"
   style="fill:#0000ff">
       <path
   style="fill:#0000ff;stroke:none"
   inkscape:connector-curvature="0"
   id="path18"
   d="m 10900,4200 c 4422,0 7800,3421 7800,7900 0,4479 -3378,7900 -7800,7900 -4422,0 -7800,-3421 -7800,-7900 0,-4479 3378,-7900 7800,-7900 z m -7800,0 0,0 z m 15601,15801 0,0 z" />
       <path
   style="fill:#0000ff;stroke:#abf9e9"
   inkscape:connector-curvature="0"
   id="path20"
   d="m 10900,4200 c 4422,0 7800,3421 7800,7900 0,4479 -3378,7900 -7800,7900 -4422,0 -7800,-3421 -7800,-7900 0,-4479 3378,-7900 7800,-7900 z" />
       <path
   style="fill:#0000ff;stroke:#abf9e9"
   inkscape:connector-curvature="0"
   id="path22"
   d="m 3100,4200 0,0 z" />
       <path
   style="fill:#0000ff;stroke:#abf9e9"
   inkscape:connector-curvature="0"
   id="path24"
   d="m 18701,20001 0,0 z" />
      </g>
     </g><g
   id="g26"
   class="com.sun.star.drawing.CustomShape">
      <g
   id="id4">
       <path
   style="fill:#ffffff;stroke:none"
   inkscape:connector-curvature="0"
   id="path29"
   d="m 10900,5400 c 2948,0 5200,2923 5200,6750 0,3827 -2252,6750 -5200,6750 -2948,0 -5200,-2923 -5200,-6750 0,-3827 2252,-6750 5200,-6750 z m -5200,0 0,0 z m 10401,13501 0,0 z" />
       <path
   style="fill:none;stroke:#ffffff"
   inkscape:connector-curvature="0"
   id="path31"
   d="m 10900,5400 c 2948,0 5200,2923 5200,6750 0,3827 -2252,6750 -5200,6750 -2948,0 -5200,-2923 -5200,-6750 0,-3827 2252,-6750 5200,-6750 z" />
       <path
   style="fill:none;stroke:#ffffff"
   inkscape:connector-curvature="0"
   id="path33"
   d="m 5700,5400 0,0 z" />
       <path
   style="fill:none;stroke:#ffffff"
   inkscape:connector-curvature="0"
   id="path35"
   d="m 16101,18901 0,0 z" />
      </g>
     </g><g
   id="g37"
   class="com.sun.star.drawing.CustomShape"
   style="fill:#0000ff">
      <g
   id="id5"
   style="fill:#0000ff">
       <path
   style="fill:#0000ff;stroke:none"
   inkscape:connector-curvature="0"
   id="path40"
   d="m 11050,9300 c 3940,0 6950,1234 6950,2849 0,1615 -3010,2850 -6950,2850 -3940,0 -6950,-1235 -6950,-2850 0,-1615 3010,-2849 6950,-2849 z m -6950,0 0,0 z m 13901,5701 0,0 z" />
       <path
   style="fill:#0000ff;stroke:#abf9e9"
   inkscape:connector-curvature="0"
   id="path42"
   d="m 11050,9300 c 3940,0 6950,1234 6950,2849 0,1615 -3010,2850 -6950,2850 -3940,0 -6950,-1235 -6950,-2850 0,-1615 3010,-2849 6950,-2849 z" />
       <path
   style="fill:#0000ff;stroke:#abf9e9"
   inkscape:connector-curvature="0"
   id="path44"
   d="m 4100,9300 0,0 z" />
       <path
   style="fill:#0000ff;stroke:#abf9e9"
   inkscape:connector-curvature="0"
   id="path46"
   d="m 18001,15001 0,0 z" />
      </g>
     </g><g
   id="g48"
   class="com.sun.star.drawing.CustomShape">
      <g
   id="id6">
       <path
   style="fill:#ffffff;stroke:none"
   inkscape:connector-curvature="0"
   id="path51"
   d="m 10921,9069 c 2787,0 4915,465 4915,1074 0,609 -2128,1074 -4915,1074 -2787,0 -4915,-465 -4915,-1074 0,-609 2128,-1074 4915,-1074 z m -4915,0 0,0 z m 9831,2149 0,0 z" />
       <path
   style="fill:none;stroke:#ffffff"
   inkscape:connector-curvature="0"
   id="path53"
   d="m 10921,9069 c 2787,0 4915,465 4915,1074 0,609 -2128,1074 -4915,1074 -2787,0 -4915,-465 -4915,-1074 0,-609 2128,-1074 4915,-1074 z" />
       <path
   style="fill:none;stroke:#ffffff"
   inkscape:connector-curvature="0"
   id="path55"
   d="m 6006,9069 0,0 z" />
       <path
   style="fill:none;stroke:#ffffff"
   inkscape:connector-curvature="0"
   id="path57"
   d="m 15837,11218 0,0 z" />
      </g>
     </g><g
   id="g59"
   class="com.sun.star.drawing.CustomShape">
      <g
   id="id7">
       <path
   style="fill:#ffffff;stroke:none"
   inkscape:connector-curvature="0"
   id="path62"
   d="m 10921,13091 c 2787,0 4915,465 4915,1074 0,609 -2128,1074 -4915,1074 -2787,0 -4915,-465 -4915,-1074 0,-609 2128,-1074 4915,-1074 z m -4915,0 0,0 z m 9831,2149 0,0 z" />
       <path
   style="fill:none;stroke:#ffffff"
   inkscape:connector-curvature="0"
   id="path64"
   d="m 10921,13091 c 2787,0 4915,465 4915,1074 0,609 -2128,1074 -4915,1074 -2787,0 -4915,-465 -4915,-1074 0,-609 2128,-1074 4915,-1074 z" />
       <path
   style="fill:none;stroke:#ffffff"
   inkscape:connector-curvature="0"
   id="path66"
   d="m 6006,13091 0,0 z" />
       <path
   style="fill:none;stroke:#ffffff"
   inkscape:connector-curvature="0"
   id="path68"
   d="m 15837,15240 0,0 z" />
      </g>
     </g>
 </g>
</svg>