<?xml version="1.0" encoding="UTF-8" standalone="no"?>
<svg
   xmlns:ooo="http://xml.openoffice.org/svg/export"
   xmlns:dc="http://purl.org/dc/elements/1.1/"
   xmlns:cc="http://creativecommons.org/ns#"
   xmlns:rdf="http://www.w3.org/1999/02/22-rdf-syntax-ns#"
   xmlns:svg="http://www.w3.org/2000/svg"
   xmlns="http://www.w3.org/2000/svg"
   xmlns:sodipodi="http://sodipodi.sourceforge.net/DTD/sodipodi-0.dtd"
   xmlns:inkscape="http://www.inkscape.org/namespaces/inkscape"
   version="1.2"
   width="128mm"
   height="128mm"
   viewBox="0 0 25600 25600"
   preserveAspectRatio="xMidYMid"
   fill-rule="evenodd"
   clip-path="url(#presentation_clip_path)"
   stroke-width="28.222"
   stroke-linejoin="round"
   xml:space="preserve"
   id="svg2"
   inkscape:version="0.48.3.1 r9886"
   sodipodi:docname="zentasplash.svg"
   inkscape:export-filename="/home/build/mag/tmp/zentasplash.png"
   inkscape:export-xdpi="24.8209"
   inkscape:export-ydpi="24.8209"><metadata
   id="metadata72"><rdf:RDF><cc:Work
       rdf:about=""><dc:format>image/svg+xml</dc:format><dc:type
         rdf:resource="http://purl.org/dc/dcmitype/StillImage" /><dc:title></dc:title></cc:Work></rdf:RDF></metadata><sodipodi:namedview
   pagecolor="#ffffff"
   bordercolor="#666666"
   borderopacity="1"
   objecttolerance="10"
   gridtolerance="10"
   guidetolerance="10"
   inkscape:pageopacity="0"
   inkscape:pageshadow="2"
   inkscape:window-width="640"
   inkscape:window-height="480"
   id="namedview70"
   showgrid="false"
   inkscape:zoom="0.52034723"
   inkscape:cx="226.77165"
   inkscape:cy="226.77165"
   inkscape:window-x="0"
   inkscape:window-y="24"
   inkscape:window-maximized="0"
   inkscape:current-layer="svg2" />
 <defs
   class="TextShapeIndex"
   id="defs4">
  <g
   ooo:slide="id1"
   ooo:id-list="id3 id4 id5 id6 id7 id8"
   id="g6" />
 
  
 
   
        

  
    
   
     
     
     
     
     
    </defs>
 <rect
   style="fill:#f9f9f9;fill-rule:evenodd;stroke:#000000;stroke-width:1px;stroke-linecap:butt;stroke-linejoin:miter;stroke-opacity:1"
   id="rect3020"
   width="457.3869"
   height="463.15228"
   x="0"
   y="-1.9217937"
   transform="scale(56.444445,56.444445)" /><g
   class="com.sun.star.drawing.CustomShape"
   id="g15"
   transform="matrix(1.6385258,0,0,1.6167525,-5007.7078,-6812.1659)">
      <g
   id="id3">
       <path
   d="m 10900,4200 c 4422,0 7800,3421 7800,7900 0,4479 -3378,7900 -7800,7900 -4422,0 -7800,-3421 -7800,-7900 0,-4479 3378,-7900 7800,-7900 z m -7800,0 0,0 z m 15601,15801 0,0 z"
   id="path18"
   inkscape:connector-curvature="0"
   style="fill:#abf9e9;stroke:none" />
       <path
   d="m 10900,4200 c 4422,0 7800,3421 7800,7900 0,4479 -3378,7900 -7800,7900 -4422,0 -7800,-3421 -7800,-7900 0,-4479 3378,-7900 7800,-7900 z"
   id="path20"
   inkscape:connector-curvature="0"
   style="fill:none;stroke:#abf9e9" />
       <path
   d="m 3100,4200 0,0 z"
   id="path22"
   inkscape:connector-curvature="0"
   style="fill:none;stroke:#abf9e9" />
       <path
   d="m 18701,20001 0,0 z"
   id="path24"
   inkscape:connector-curvature="0"
   style="fill:none;stroke:#abf9e9" />
      </g>
     </g><g
   class="com.sun.star.drawing.CustomShape"
   id="g26"
   transform="matrix(1.6385258,0,0,1.6167525,-5007.7078,-6812.1659)">
      <g
   id="id4">
       <path
   d="m 10900,5400 c 2948,0 5200,2923 5200,6750 0,3827 -2252,6750 -5200,6750 -2948,0 -5200,-2923 -5200,-6750 0,-3827 2252,-6750 5200,-6750 z m -5200,0 0,0 z m 10401,13501 0,0 z"
   id="path29"
   inkscape:connector-curvature="0"
   style="fill:#f9f9f9;stroke:none" />
       <path
   d="m 10900,5400 c 2948,0 5200,2923 5200,6750 0,3827 -2252,6750 -5200,6750 -2948,0 -5200,-2923 -5200,-6750 0,-3827 2252,-6750 5200,-6750 z"
   id="path31"
   inkscape:connector-curvature="0"
   style="fill:none;stroke:#ffffff" />
       <path
   d="m 5700,5400 0,0 z"
   id="path33"
   inkscape:connector-curvature="0"
   style="fill:none;stroke:#ffffff" />
       <path
   d="m 16101,18901 0,0 z"
   id="path35"
   inkscape:connector-curvature="0"
   style="fill:none;stroke:#ffffff" />
      </g>
     </g><g
   class="com.sun.star.drawing.CustomShape"
   id="g37"
   transform="matrix(1.6385258,0,0,1.6167525,-5007.7078,-6812.1659)">
      <g
   id="id5">
       <path
   d="m 11050,9300 c 3940,0 6950,1234 6950,2849 0,1615 -3010,2850 -6950,2850 -3940,0 -6950,-1235 -6950,-2850 0,-1615 3010,-2849 6950,-2849 z m -6950,0 0,0 z m 13901,5701 0,0 z"
   id="path40"
   inkscape:connector-curvature="0"
   style="fill:#abf9e9;stroke:none" />
       <path
   d="m 11050,9300 c 3940,0 6950,1234 6950,2849 0,1615 -3010,2850 -6950,2850 -3940,0 -6950,-1235 -6950,-2850 0,-1615 3010,-2849 6950,-2849 z"
   id="path42"
   inkscape:connector-curvature="0"
   style="fill:none;stroke:#abf9e9" />
       <path
   d="m 4100,9300 0,0 z"
   id="path44"
   inkscape:connector-curvature="0"
   style="fill:none;stroke:#abf9e9" />
       <path
   d="m 18001,15001 0,0 z"
   id="path46"
   inkscape:connector-curvature="0"
   style="fill:none;stroke:#abf9e9" />
      </g>
     </g><g
   class="com.sun.star.drawing.CustomShape"
   id="g48"
   transform="matrix(1.6385258,0,0,1.6167525,-5007.7078,-6812.1659)">
      <g
   id="id6">
       <path
   d="m 10921,9069 c 2787,0 4915,465 4915,1074 0,609 -2128,1074 -4915,1074 -2787,0 -4915,-465 -4915,-1074 0,-609 2128,-1074 4915,-1074 z m -4915,0 0,0 z m 9831,2149 0,0 z"
   id="path51"
   inkscape:connector-curvature="0"
   style="fill:#ffffff;stroke:none" />
       <path
   d="m 10921,9069 c 2787,0 4915,465 4915,1074 0,609 -2128,1074 -4915,1074 -2787,0 -4915,-465 -4915,-1074 0,-609 2128,-1074 4915,-1074 z"
   id="path53"
   inkscape:connector-curvature="0"
   style="fill:#f9f9f9;stroke:#ffffff" />
       <path
   d="m 6006,9069 0,0 z"
   id="path55"
   inkscape:connector-curvature="0"
   style="fill:none;stroke:#ffffff" />
       <path
   d="m 15837,11218 0,0 z"
   id="path57"
   inkscape:connector-curvature="0"
   style="fill:none;stroke:#ffffff" />
      </g>
     </g><g
   class="com.sun.star.drawing.CustomShape"
   id="g59"
   transform="matrix(1.6385258,0,0,1.6167525,-5007.7078,-6812.1659)">
      <g
   id="id7"
   style="fill:#f9f9f9">
       <path
   d="m 10921,13091 c 2787,0 4915,465 4915,1074 0,609 -2128,1074 -4915,1074 -2787,0 -4915,-465 -4915,-1074 0,-609 2128,-1074 4915,-1074 z m -4915,0 0,0 z m 9831,2149 0,0 z"
   id="path62"
   inkscape:connector-curvature="0"
   style="fill:#f9f9f9;stroke:none" />
       <path
   d="m 10921,13091 c 2787,0 4915,465 4915,1074 0,609 -2128,1074 -4915,1074 -2787,0 -4915,-465 -4915,-1074 0,-609 2128,-1074 4915,-1074 z"
   id="path64"
   inkscape:connector-curvature="0"
   style="fill:#f9f9f9;stroke:#ffffff" />
       <path
   d="m 6006,13091 0,0 z"
   id="path66"
   inkscape:connector-curvature="0"
   style="fill:#f9f9f9;stroke:#ffffff" />
       <path
   d="m 15837,15240 0,0 z"
   id="path68"
   inkscape:connector-curvature="0"
   style="fill:#f9f9f9;stroke:#ffffff" />
      </g>
     </g><g
   class="com.sun.star.drawing.TextShape"
   id="g41"
   transform="matrix(1.5191212,0,0,1.6167525,-3490.6359,-7137.5899)">
              <g
   id="id8">
                     <text
   class="TextShape"
   id="text44"><tspan
     class="TextParagraph"
     font-size="6174px"
     font-weight="600"
     id="tspan46"
     style="font-size:6174px;font-weight:600;font-family:'FreeSans, sans-serif'"><tspan
       class="TextPosition"
       x="2527"
       y="17162"
       id="tspan48"><tspan
         id="tspan50"
         style="fill:#000080;stroke:none">Zenta</tspan></tspan></tspan></text>


                           </g>
                                </g>
</svg>